# xmcd CD database file
#
# Track frame offsets:
#	150
#	21867
#	39902
#	62807
#	83595
#	103790
#	123117
#	140117
#	158172
#	178915
#	198670
#	221000
#
# Disc length: 3147 seconds
#
# Revision: 0
# Processed by: cddbd v1.5.2PL0 Copyright (c) Steve Scherf et al.
# Submitted via: CDex 1.70beta1
#
DISCID=a90c490c
DTITLE=伊藤君子 - Standards My Way
DYEAR=1993
DGENRE=Jazz
TTITLE0=Autumun In New York
TTITLE1=The Shdow Of Your Smile
TTITLE2=Prelude To A Kiss
TTITLE3=You've Got A Friend
TTITLE4=Old Devil Moon
TTITLE5=Hurricane Country
TTITLE6=Wives And Lovers
TTITLE7=But Beautiful
TTITLE8=Time After Time
TTITLE9=You Must Believe In Spring
TTITLE10=This Masquerade
TTITLE11=Moon River
EXTD=YEAR: 1993
EXTT0=
EXTT1=
EXTT2=
EXTT3=
EXTT4=
EXTT5=
EXTT6=
EXTT7=
EXTT8=
EXTT9=
EXTT10=
EXTT11=
PLAYORDER=
